<svg width="34" height="34" viewBox="0 0 34 34" fill="none" xmlns="http://www.w3.org/2000/svg">
<path d="M33.6666 6.53343L26 0.100098L23.85 2.6501L31.5166 9.08343L33.6666 6.53343ZM10.1333 2.6501L7.99998 0.100098L0.333313 6.51676L2.48331 9.06676L10.1333 2.6501ZM17.8333 10.3334H15.3333V20.3334L23.25 25.0834L24.5 23.0334L17.8333 19.0834V10.3334ZM17 3.66676C8.71665 3.66676 1.99998 10.3834 1.99998 18.6668C1.99998 26.9501 8.69998 33.6668 17 33.6668C25.2833 33.6668 32 26.9501 32 18.6668C32 10.3834 25.2833 3.66676 17 3.66676ZM17 30.3334C10.55 30.3334 5.33331 25.1168 5.33331 18.6668C5.33331 12.2168 10.55 7.0001 17 7.0001C23.45 7.0001 28.6666 12.2168 28.6666 18.6668C28.6666 25.1168 23.45 30.3334 17 30.3334Z" fill="black"/>
</svg>
