<svg width="30" height="30" viewBox="0 0 30 30" fill="none" xmlns="http://www.w3.org/2000/svg">
<path d="M0 16.6667H3.33333V13.3333H0V16.6667ZM0 23.3333H3.33333V20H0V23.3333ZM3.33333 30V26.6667H0C0 28.5 1.48333 30 3.33333 30ZM0 10H3.33333V6.66667H0V10ZM20 30H23.3333V26.6667H20V30ZM26.6667 0H10C8.15 0 6.66667 1.5 6.66667 3.33333V20C6.66667 21.8333 8.15 23.3333 10 23.3333H26.6667C28.5 23.3333 30 21.8333 30 20V3.33333C30 1.5 28.5 0 26.6667 0ZM26.6667 20H10V3.33333H26.6667V20ZM13.3333 30H16.6667V26.6667H13.3333V30ZM6.66667 30H10V26.6667H6.66667V30Z" fill="black"/>
</svg>
