<svg width="34" height="34" viewBox="0 0 34 34" fill="none" xmlns="http://www.w3.org/2000/svg">
<path d="M17 3.66659C24.35 3.66659 30.3333 9.64992 30.3333 16.9999C30.3333 24.3499 24.35 30.3333 17 30.3333C9.64998 30.3333 3.66665 24.3499 3.66665 16.9999C3.66665 9.64992 9.64998 3.66659 17 3.66659ZM17 0.333252C7.79998 0.333252 0.333313 7.79992 0.333313 16.9999C0.333313 26.1999 7.79998 33.6666 17 33.6666C26.2 33.6666 33.6666 26.1999 33.6666 16.9999C33.6666 7.79992 26.2 0.333252 17 0.333252ZM18.6666 16.9999V10.3333H15.3333V16.9999H10.3333L17 23.6666L23.6666 16.9999H18.6666Z" fill="black"/>
</svg>
