<svg width="24" height="34" viewBox="0 0 24 34" fill="none" xmlns="http://www.w3.org/2000/svg">
<path d="M6.99998 31.9999C6.99998 32.9166 7.74998 33.6666 8.66665 33.6666H15.3333C16.25 33.6666 17 32.9166 17 31.9999V30.3333H6.99998V31.9999ZM12 0.333252C5.56665 0.333252 0.333313 5.56659 0.333313 11.9999C0.333313 15.9666 2.31665 19.4499 5.33331 21.5666V25.3333C5.33331 26.2499 6.08331 26.9999 6.99998 26.9999H17C17.9166 26.9999 18.6666 26.2499 18.6666 25.3333V21.5666C21.6833 19.4499 23.6666 15.9666 23.6666 11.9999C23.6666 5.56659 18.4333 0.333252 12 0.333252ZM15.3333 19.8333V23.6666H8.66665V19.8333C6.13331 18.0499 3.66665 16.2166 3.66665 11.9999C3.66665 7.39992 7.39998 3.66659 12 3.66659C16.6 3.66659 20.3333 7.39992 20.3333 11.9999C20.3333 16.1499 17.8166 18.0833 15.3333 19.8333Z" fill="black"/>
</svg>
